<svg width="1512" height="141" viewBox="0 0 1512 141" fill="none" xmlns="http://www.w3.org/2000/svg">
<path fill-rule="evenodd" clip-rule="evenodd" d="M1512.01 116.838L1462 105.002C1411 93.1662 1310 70.0091 1210 50.4548C1109 30.9006 1008 15.4641 907.001 23.1892C806.001 30.9144 706.003 62.3159 605.004 77.7617C504.004 93.2074 403.004 93.212 302.004 77.7754C202.003 62.3388 101.001 30.9464 50.0008 15.5076L9.01222e-05 0.0686934L0.00645061 140.068L50.0064 140.066C101.006 140.064 202.006 140.059 302.006 140.055C403.006 140.05 504.006 140.046 605.006 140.041C706.006 140.036 806.006 140.032 907.006 140.027C1008.01 140.023 1109.01 140.018 1210.01 140.014C1310.01 140.009 1411.01 140.004 1462.01 140.002L1512.01 140L1512.01 116.838Z" fill="#EABE3F"/>
</svg>
